<?xml version="1.0" encoding="UTF-8"?>
<svg version="1.1" xmlns="http://www.w3.org/2000/svg" viewBox="0 0 1024 1024">

<path d="M0 0 C337.92 0 675.84 0 1024 0 C1024 337.92 1024 675.84 1024 1024 C686.08 1024 348.16 1024 0 1024 C0 686.08 0 348.16 0 0 Z " fill="#272F59" transform="translate(0,0)"/>
<path d="M0 0 C1.28680664 -0.01836914 1.28680664 -0.01836914 2.59960938 -0.03710938 C3.8284082 -0.04000977 3.8284082 -0.04000977 5.08203125 -0.04296875 C6.19348511 -0.04913208 6.19348511 -0.04913208 7.32739258 -0.05541992 C9.1875 0.1875 9.1875 0.1875 11.1875 2.1875 C10.82068342 5.12203261 10.32312754 6.05187246 8.1875 8.1875 C5.23063986 8.20232879 2.32581974 8.12531344 -0.625 8 C-9.347228 7.82142696 -15.95482913 9.19563512 -23.8125 13.1875 C-24.77671875 13.65671875 -25.7409375 14.1259375 -26.734375 14.609375 C-32.99155337 17.8243893 -38.39421626 21.72732741 -43.8125 26.1875 C-44.67875 26.826875 -45.545 27.46625 -46.4375 28.125 C-49.94870295 31.17420256 -52.85869684 34.60278743 -55.8125 38.1875 C-56.58980469 39.12722656 -57.36710937 40.06695312 -58.16796875 41.03515625 C-64.77023598 49.21037742 -69.93790527 57.89704142 -74.8125 67.1875 C-75.13347656 67.79239258 -75.45445312 68.39728516 -75.78515625 69.02050781 C-82.36502527 81.48509232 -87.28114311 94.34529857 -91.63525391 107.70825195 C-93.35081853 112.93170363 -95.32836936 117.97163029 -97.4921875 123.02734375 C-104.41876196 139.60603824 -109.75777415 156.83670812 -115.39349365 173.88372803 C-117.30021337 179.64904595 -119.22079132 185.40961637 -121.1484375 191.16796875 C-121.69443121 192.80020694 -122.2404112 194.43244972 -122.78637695 196.06469727 C-123.5713887 198.41142739 -124.35673986 200.75804013 -125.1434021 203.10421753 C-127.8222152 211.09628137 -130.47512733 219.087062 -132.8125 227.1875 C-131.8476269 225.9351252 -130.88285241 224.68267435 -129.91845703 223.42993164 C-129.03835306 222.28685964 -128.15780204 221.14413173 -127.27685547 220.00170898 C-124.72654949 216.69051645 -122.19093031 213.36924208 -119.67578125 210.03125 C-113.54593637 201.91490718 -107.24814968 194.03609957 -100.5625 186.37109375 C-98.14906273 183.59977348 -95.84784505 180.75332284 -93.5625 177.875 C-83.59897704 165.6718887 -72.30533049 154.57975947 -61.21310425 143.41287231 C-60.08765173 142.27936008 -58.96368199 141.1443733 -57.84133911 140.00778198 C-51.55376222 133.64878883 -45.1852815 127.65304679 -38.17797852 122.07373047 C-36.27764494 120.55840616 -34.44063534 119.01706986 -32.6328125 117.39453125 C-17.09426111 103.58999212 1.73621405 90.16627748 22.1875 85.1875 C22.86039063 85.00574219 23.53328125 84.82398438 24.2265625 84.63671875 C30.35351457 83.23313411 35.04537325 83.96030346 40.4375 87.00390625 C46.53755618 91.12961389 48.96151116 98.55777899 50.78125 105.4296875 C54.29440738 129.27862122 48.46882988 154.59479875 41.1875 177.1875 C40.65683554 178.9060289 40.12689383 180.62478114 39.59765625 182.34375 C35.6845945 194.79227978 30.76556866 206.69311654 25.37353516 218.56884766 C24.31911017 220.89691732 23.28713292 223.23328117 22.26171875 225.57421875 C16.57607085 238.33229506 9.37938002 250.23405581 2.1875 262.1875 C1.72021484 262.97108887 1.25292969 263.75467773 0.77148438 264.56201172 C-5.43949557 274.95055897 -12.36153074 284.65320918 -19.8125 294.1875 C-20.56144531 295.15171875 -21.31039063 296.1159375 -22.08203125 297.109375 C-40.34067192 320.00889465 -61.94257562 340.05460463 -88.8125 352.1875 C-89.71484375 352.65414063 -90.6171875 353.12078125 -91.546875 353.6015625 C-103.60763498 359.70685404 -119.04270915 363.30706408 -132.5390625 363.3203125 C-133.81910156 363.32160156 -135.09914063 363.32289063 -136.41796875 363.32421875 C-137.07974121 363.32212402 -137.74151367 363.3200293 -138.42333984 363.31787109 C-140.41112687 363.31257033 -142.39893341 363.31832028 -144.38671875 363.32421875 C-166.27296434 363.3023106 -166.27296434 363.3023106 -174.0625 360.125 C-174.97515625 359.76277344 -175.8878125 359.40054687 -176.828125 359.02734375 C-177.48296875 358.75019531 -178.1378125 358.47304688 -178.8125 358.1875 C-179.17472656 359.39148438 -179.53695313 360.59546875 -179.91015625 361.8359375 C-182.11168155 368.42380596 -185.19927467 374.58560465 -188.25 380.8125 C-188.55995911 381.44855164 -188.86991821 382.08460327 -189.18927002 382.7399292 C-208.33554346 422.02121626 -230.52545222 459.24496088 -256.8125 494.1875 C-257.27398437 494.80496094 -257.73546875 495.42242188 -258.2109375 496.05859375 C-269.63155361 511.32068983 -282.20993899 525.83376633 -295.8125 539.1875 C-298.45310074 541.81064222 -301.07171627 544.45085604 -303.65234375 547.1328125 C-310.69151088 554.3939456 -318.03368495 560.81584711 -326.11132812 566.89208984 C-327.74767785 568.13813916 -329.35339708 569.41443899 -330.953125 570.70703125 C-349.41307084 585.43324433 -370.56148772 596.39583943 -392.8125 604.1875 C-393.93603882 604.60733154 -393.93603882 604.60733154 -395.08227539 605.03564453 C-417.75775233 613.48229578 -448.83955425 614.01617171 -471.203125 604.3515625 C-477.9972184 601.22490853 -484.8464448 597.88029498 -489.8125 592.1875 C-490.75 588.3125 -490.75 588.3125 -490.8125 585.1875 C-489 584.5 -489 584.5 -486.8125 584.1875 C-485.79053008 585.16503644 -484.79270375 586.1680881 -483.8125 587.1875 C-481.20638923 587.90947162 -481.20638923 587.90947162 -478.8125 588.1875 C-478.94527344 587.64222656 -479.07804687 587.09695313 -479.21484375 586.53515625 C-480.14215383 582.57547451 -480.85289586 578.87992954 -481 574.8125 C-481.87467743 566.83106843 -487.71158484 560.61463916 -492.42578125 554.4375 C-493.06362549 553.59429199 -493.70146973 552.75108398 -494.35864258 551.88232422 C-495.64928449 550.1847987 -496.95493742 548.49857021 -498.27612305 546.82470703 C-498.87593994 546.03950684 -499.47575684 545.25430664 -500.09375 544.4453125 C-500.64095703 543.7455127 -501.18816406 543.04571289 -501.75195312 542.32470703 C-503.12169969 539.56440283 -502.67972218 538.07929408 -501.8125 535.1875 C-498.38621165 535.75364636 -497.07050691 536.67126962 -494.9375 539.375 C-477.139344 560.55784806 -452.206175 581.81399406 -423.8125 585.1875 C-411.36205603 585.94398267 -398.73972058 586.22933306 -386.8125 582.1875 C-386.20567383 581.98882324 -385.59884766 581.79014648 -384.97363281 581.58544922 C-361.66209697 573.855469 -343.32671363 560.15140364 -325.8125 543.1875 C-324.58273437 542.01767578 -324.58273437 542.01767578 -323.328125 540.82421875 C-318.6236458 536.25762945 -314.40347053 531.4294093 -310.3125 526.30859375 C-308.50173901 524.04797182 -306.67329314 521.81615867 -304.8125 519.59765625 C-297.02153115 510.25845923 -290.03269713 500.53710601 -283.29980469 490.41259766 C-281.94881074 488.3914291 -280.57796384 486.38630253 -279.1953125 484.38671875 C-272.07518063 474.02965131 -265.90148717 463.17479686 -259.8125 452.1875 C-259.28172852 451.23568848 -258.75095703 450.28387695 -258.20410156 449.30322266 C-243.62137244 423.06215509 -230.08093831 396.04885411 -218.99414062 368.13769531 C-217.69362588 364.89070767 -216.3573461 361.65985824 -215.015625 358.4296875 C-209.79101599 345.81713416 -204.89247281 333.1684028 -200.52026367 320.23608398 C-199.62032054 317.63124686 -198.65037357 315.05394004 -197.67431641 312.47680664 C-190.15669308 292.51471332 -190.15669308 292.51471332 -183.9375 272.125 C-181.43273945 262.87320646 -178.3435287 253.85655488 -175.1875 244.8125 C-170.10399518 230.23475241 -165.46057139 215.55342651 -160.97119141 200.78295898 C-160.47964531 199.16645734 -159.98794949 197.55000121 -159.49609375 195.93359375 C-159.26061829 195.1597081 -159.02514282 194.38582245 -158.78253174 193.58848572 C-156.72123633 186.83898903 -154.51569812 180.14425575 -152.24169922 173.46362305 C-150.07098149 167.055743 -148.08722135 160.59944213 -146.125 154.125 C-141.75434736 139.75550964 -136.98072099 125.52778743 -132.192276 111.29362488 C-130.300121 105.66165966 -128.43799804 100.02026081 -126.5859375 94.375 C-125.79192443 91.96312496 -124.99733832 89.55143957 -124.20251465 87.13983154 C-123.70209679 85.61745772 -123.20372162 84.09441054 -122.7076416 82.57061768 C-115.17781932 59.45402446 -106.59722607 41.50662779 -84.6875 28.875 C-83.74390625 28.32521484 -82.8003125 27.77542969 -81.828125 27.20898438 C-57.02283214 12.99011927 -29.10518479 0.02237139 0 0 Z " fill="#FBFBFC" transform="translate(684.8125,203.8125)"/>
<path d="M0 0 C2.92409833 1.93077405 3.3540781 4.15002729 4.30078125 7.421875 C7.30840609 23.00485877 2.98712177 39.81452214 -1.9765625 54.56640625 C-2.8094124 57.13367293 -3.52361908 59.60133559 -4.1484375 62.21484375 C-8.54113815 80.30551841 -17.68828139 97.83344478 -26.17773438 114.30761719 C-26.82092785 115.55628206 -27.46040131 116.80687185 -28.09570312 118.05957031 C-41.50242855 144.46203276 -58.84935577 168.71490353 -79.16015625 190.21484375 C-79.97355469 191.08238281 -80.78695312 191.94992187 -81.625 192.84375 C-95.35526953 207.06359154 -111.80820683 218.46173337 -131.16015625 223.21484375 C-131.82144531 223.405625 -132.48273437 223.59640625 -133.1640625 223.79296875 C-140.71559849 225.3889881 -149.31415671 224.92035598 -156.16015625 221.21484375 C-162.12198297 216.8219188 -165.35002419 211.49447563 -166.47607422 204.15600586 C-168.45357601 177.47236749 -154.08994222 152.2394331 -139.36816406 130.96972656 C-137.62502745 128.43745778 -135.96272781 125.85336368 -134.28515625 123.27734375 C-126.32099545 111.42067901 -118.01855706 99.88795541 -108.6484375 89.1015625 C-106.37103915 86.4594944 -104.19041044 83.76923518 -102.03515625 81.02734375 C-98.61769335 76.71533024 -94.99958396 72.62721194 -91.29296875 68.5625 C-89.48741454 66.57506762 -87.7227948 64.56330895 -85.97265625 62.52734375 C-77.90774833 53.29172339 -69.43426713 44.40289864 -60.78515625 35.71484375 C-60.23915771 35.16425293 -59.69315918 34.61366211 -59.13061523 34.04638672 C-52.46479737 27.40570012 -45.32887183 21.41309652 -37.84765625 15.71484375 C-37.10854004 15.15168457 -36.36942383 14.58852539 -35.60791016 14.00830078 C-11.51327269 -4.18475192 -11.51327269 -4.18475192 0 0 Z " fill="#28305B" transform="translate(690.16015625,327.78515625)"/>
<path d="M0 0 C1.32 0.66 2.64 1.32 4 2 C2.44499019 5.81684226 -0.03595495 8.19195732 -3 11 C-2.01 7.37 -1.02 3.74 0 0 Z " fill="#414A6E" transform="translate(554,421)"/>
<path d="M0 0 C0.33 0.99 0.66 1.98 1 3 C-0.98 4.98 -2.96 6.96 -5 9 C-5.66 8.67 -6.32 8.34 -7 8 C-4.69 5.36 -2.38 2.72 0 0 Z " fill="#3C436C" transform="translate(606,388)"/>
</svg>
