<svg xmlns="http://www.w3.org/2000/svg" xmlns:xlink="http://www.w3.org/1999/xlink" width="20px" height="20px" viewBox="0 0 20 20" version="1.1">
<g id="surface1">
<path style=" stroke:none;fill-rule:nonzero;fill:#2273c1;fill-opacity:1;" d="M 6.394531 6.507812 L 6.394531 7.472656 L 6.421875 7.472656 C 6.679688 7.105469 6.992188 6.820312 7.355469 6.621094 C 7.714844 6.414062 8.132812 6.316406 8.605469 6.316406 C 9.054688 6.316406 9.464844 6.402344 9.839844 6.578125 C 10.210938 6.75 10.492188 7.0625 10.6875 7.5 C 10.898438 7.1875 11.1875 6.910156 11.550781 6.671875 C 11.910156 6.433594 12.34375 6.316406 12.839844 6.316406 C 13.214844 6.316406 13.566406 6.363281 13.886719 6.453125 C 14.210938 6.546875 14.484375 6.691406 14.714844 6.894531 C 14.945312 7.101562 15.125 7.363281 15.253906 7.6875 C 15.378906 8.015625 15.445312 8.40625 15.445312 8.871094 L 15.445312 13.640625 L 13.488281 13.640625 L 13.488281 9.601562 C 13.488281 9.363281 13.480469 9.132812 13.460938 8.921875 C 13.441406 8.710938 13.390625 8.527344 13.3125 8.375 C 13.226562 8.214844 13.109375 8.09375 12.945312 8 C 12.785156 7.90625 12.566406 7.863281 12.292969 7.863281 C 12.015625 7.863281 11.792969 7.914062 11.625 8.019531 C 11.453125 8.125 11.320312 8.261719 11.222656 8.433594 C 11.125 8.605469 11.0625 8.796875 11.03125 9.015625 C 11 9.230469 10.980469 9.449219 10.980469 9.667969 L 10.980469 13.640625 L 9.023438 13.640625 L 9.023438 9.640625 C 9.023438 9.429688 9.019531 9.222656 9.007812 9.015625 C 9 8.808594 8.957031 8.621094 8.886719 8.441406 C 8.820312 8.269531 8.703125 8.125 8.542969 8.023438 C 8.378906 7.917969 8.144531 7.867188 7.832031 7.867188 C 7.738281 7.867188 7.617188 7.882812 7.464844 7.925781 C 7.316406 7.96875 7.164062 8.046875 7.023438 8.160156 C 6.878906 8.277344 6.757812 8.441406 6.65625 8.65625 C 6.558594 8.875 6.507812 9.15625 6.507812 9.507812 L 6.507812 13.644531 L 4.550781 13.644531 L 4.550781 6.507812 Z M 6.394531 6.507812 "/>
<path style="fill:none;stroke-width:2;stroke-linecap:butt;stroke-linejoin:miter;stroke:#2273c1;stroke-opacity:1;stroke-miterlimit:4;" d="M 5 1 L 0 1 " transform="matrix(0.625,0,0,0.625,0,0)"/>
<path style="fill:none;stroke-width:2;stroke-linecap:butt;stroke-linejoin:miter;stroke:#2273c1;stroke-opacity:1;stroke-miterlimit:4;" d="M 1 1 L 1 32 " transform="matrix(0.625,0,0,0.625,0,0)"/>
<path style="fill:none;stroke-width:2;stroke-linecap:butt;stroke-linejoin:miter;stroke:#2273c1;stroke-opacity:1;stroke-miterlimit:4;" d="M 0 31 L 5 31 " transform="matrix(0.625,0,0,0.625,0,0)"/>
<path style="fill:none;stroke-width:2;stroke-linecap:butt;stroke-linejoin:miter;stroke:#2273c1;stroke-opacity:1;stroke-miterlimit:4;" d="M 0 -1 L 5 -1 " transform="matrix(0.625,0,0,-0.625,16.875,0)"/>
<path style="fill:none;stroke-width:2;stroke-linecap:butt;stroke-linejoin:miter;stroke:#2273c1;stroke-opacity:1;stroke-miterlimit:4;" d="M 0 -1 L 31 -1 " transform="matrix(0,0.625,0.625,0,20,0.625)"/>
<path style="fill:none;stroke-width:2;stroke-linecap:butt;stroke-linejoin:miter;stroke:#2273c1;stroke-opacity:1;stroke-miterlimit:4;" d="M 0 -1 L 5 -1 " transform="matrix(-0.625,0,0,0.625,20,20)"/>
</g>
</svg>